<svg xmlns="http://www.w3.org/2000/svg" width="24" height="24" viewBox="0 0 24 24">
  <g id="ic_eyeOn" opacity="0.7">
    <rect id="Rectangle_8102" data-name="Rectangle 8102" width="24" height="24" fill="none"/>
    <g id="Icon_ionic-ios-eye" data-name="Icon ionic-ios-eye" transform="translate(3 6.215)">
      <path id="Path_2713" data-name="Path 2713" d="M11.242,7.875c-3.23,0-5.777,2.033-8.823,5.355a.635.635,0,0,0,0,.856c2.607,2.881,4.905,5.359,8.827,5.359,3.873,0,6.778-3.122,8.843-5.384a.63.63,0,0,0,.02-.832C18,10.679,15.087,7.875,11.242,7.875Zm.177,9.4a3.616,3.616,0,1,1,3.443-3.443A3.617,3.617,0,0,1,11.419,17.272Z" transform="translate(-2.252 -7.875)"/>
      <path id="Path_2714" data-name="Path 2714" d="M16.072,14.183A1.888,1.888,0,0,1,16.2,13.5c-.04,0-.08,0-.125,0a2.571,2.571,0,1,0,2.571,2.571c0-.052,0-.1,0-.157a1.782,1.782,0,0,1-.731.157A1.865,1.865,0,0,1,16.072,14.183Z" transform="translate(-7.073 -10.286)"/>
    </g>
  </g>
</svg>
